<?xml version="1.0" encoding="UTF-8" standalone="no"?>
<!DOCTYPE svg PUBLIC "-//W3C//DTD SVG 1.1//EN"
 "http://www.w3.org/Graphics/SVG/1.1/DTD/svg11.dtd">
<!-- Generated by graphviz version 13.0.0 (20250608.1624)
 -->
<!-- Title: AST Pages: 1 -->
<svg width="240pt" height="232pt"
 viewBox="0.00 0.00 240.00 232.00" xmlns="http://www.w3.org/2000/svg" xmlns:xlink="http://www.w3.org/1999/xlink">
<g id="graph0" class="graph" transform="scale(1 1) rotate(0) translate(4 227.97)">
<title>AST</title>
<polygon fill="white" stroke="none" points="-4,4 -4,-227.97 236.27,-227.97 236.27,4 -4,4"/>
<!-- node1 -->
<g id="node1" class="node">
<title>node1</title>
<ellipse fill="lightgreen" stroke="black" cx="90.13" cy="-205.97" rx="32.41" ry="18"/>
<text xml:space="preserve" text-anchor="middle" x="90.13" y="-200.92" font-family="Times New Roman,serif" font-size="14.00">Suma</text>
</g>
<!-- node2 -->
<g id="node2" class="node">
<title>node2</title>
<ellipse fill="lightblue" stroke="black" cx="43.13" cy="-122.97" rx="43.13" ry="28.99"/>
<text xml:space="preserve" text-anchor="middle" x="43.13" y="-126.17" font-family="Times New Roman,serif" font-size="14.00">Numero</text>
<text xml:space="preserve" text-anchor="middle" x="43.13" y="-109.67" font-family="Times New Roman,serif" font-size="14.00">3</text>
</g>
<!-- node1&#45;&gt;node2 -->
<g id="edge3" class="edge">
<title>node1&#45;&gt;node2</title>
<path fill="none" stroke="black" d="M80.62,-188.58C75.87,-180.39 69.93,-170.15 64.18,-160.24"/>
<polygon fill="black" stroke="black" points="67.36,-158.74 59.31,-151.85 61.3,-162.26 67.36,-158.74"/>
</g>
<!-- node3 -->
<g id="node3" class="node">
<title>node3</title>
<ellipse fill="lightgreen" stroke="black" cx="137.13" cy="-122.97" rx="32.41" ry="18"/>
<text xml:space="preserve" text-anchor="middle" x="137.13" y="-117.92" font-family="Times New Roman,serif" font-size="14.00">Suma</text>
</g>
<!-- node1&#45;&gt;node3 -->
<g id="edge4" class="edge">
<title>node1&#45;&gt;node3</title>
<path fill="none" stroke="black" d="M99.64,-188.58C105.97,-177.67 114.43,-163.1 121.71,-150.55"/>
<polygon fill="black" stroke="black" points="124.72,-152.33 126.72,-141.93 118.67,-148.82 124.72,-152.33"/>
</g>
<!-- node4 -->
<g id="node4" class="node">
<title>node4</title>
<ellipse fill="lightblue" stroke="black" cx="85.13" cy="-28.99" rx="43.13" ry="28.99"/>
<text xml:space="preserve" text-anchor="middle" x="85.13" y="-32.19" font-family="Times New Roman,serif" font-size="14.00">Numero</text>
<text xml:space="preserve" text-anchor="middle" x="85.13" y="-15.69" font-family="Times New Roman,serif" font-size="14.00">5</text>
</g>
<!-- node3&#45;&gt;node4 -->
<g id="edge1" class="edge">
<title>node3&#45;&gt;node4</title>
<path fill="none" stroke="black" d="M127.84,-105.53C121.63,-94.55 113.22,-79.68 105.51,-66.03"/>
<polygon fill="black" stroke="black" points="108.77,-64.69 100.8,-57.71 102.68,-68.13 108.77,-64.69"/>
</g>
<!-- node5 -->
<g id="node5" class="node">
<title>node5</title>
<ellipse fill="lightblue" stroke="black" cx="189.13" cy="-28.99" rx="43.13" ry="28.99"/>
<text xml:space="preserve" text-anchor="middle" x="189.13" y="-32.19" font-family="Times New Roman,serif" font-size="14.00">Numero</text>
<text xml:space="preserve" text-anchor="middle" x="189.13" y="-15.69" font-family="Times New Roman,serif" font-size="14.00">2</text>
</g>
<!-- node3&#45;&gt;node5 -->
<g id="edge2" class="edge">
<title>node3&#45;&gt;node5</title>
<path fill="none" stroke="black" d="M146.43,-105.53C152.64,-94.55 161.04,-79.68 168.76,-66.03"/>
<polygon fill="black" stroke="black" points="171.59,-68.13 173.47,-57.71 165.5,-64.69 171.59,-68.13"/>
</g>
</g>
</svg>
